<svg version="1.1" xmlns="http://www.w3.org/2000/svg" xmlns:xlink="http://www.w3.org/1999/xlink" viewBox="0 0 113.8 87.2" xml:space="preserve">
<style type="text/css">
	.st0{fill:#428281;}
	.st1{fill:#9DD6C7;}
</style>
	<path class="st0" d="M75.9,70.9V49.7h6.4c2.2,0,4.2,1,5.6,2.7c1.6,1.8,2.4,4.4,2.4,7.8c0,3.7-0.8,6.4-2.4,8.1
		c-1.4,1.6-3.5,2.6-5.6,2.6L75.9,70.9L75.9,70.9z M75.9,34.3V16.5h5.5c2.1-0.1,4.2,0.9,5.4,2.7c1.2,1.9,1.9,4.1,1.8,6.4
		c0,2.2-0.6,4.4-1.8,6.2c-1.2,1.7-3.2,2.7-5.4,2.6L75.9,34.3L75.9,34.3z M53.2,0.1v87.2h34.3c4.1,0.1,8.2-0.5,12.1-1.9
		c3.1-1.1,5.9-2.9,8.1-5.3c2.1-2.4,3.7-5.2,4.6-8.2c1-3.4,1.5-6.9,1.5-10.4c0-2.3-0.3-4.6-0.9-6.8c-0.6-2.2-1.6-4.3-2.9-6.2
		c-1.3-1.9-3-3.5-5-4.7c-2.2-1.3-4.7-2.1-7.3-2.3v-0.2c2.2-0.4,4.4-1.3,6.2-2.6c1.7-1.2,3.1-2.7,4.2-4.5c1.1-1.8,1.9-3.8,2.4-5.9
		c0.5-2.2,0.8-4.4,0.8-6.7c0-6.6-1.9-11.9-5.8-15.8s-9.9-5.9-18-5.9H53.2V0.1z"/>
	<path class="st1" d="M0,0.1v87.2h22.7V64.2l4.8-7.3l13.3,30.4h25.9L42,38.2L64,0.1H39.8L22.9,33.6h-0.2V0.1
		C22.7,0.1,0,0.1,0,0.1z"/>
</svg>
